<svg width="364" height="151" viewBox="0 0 364 151" fill="none" xmlns="http://www.w3.org/2000/svg">
<path d="M74.5 150.021C73.3021 151.229 71.3542 151.234 70.151 150.021H70.1458L68.375 148.229L69.4427 147.151C71.0417 145.536 71.0417 142.911 69.4427 141.297C68.6667 140.516 67.6354 140.083 66.5417 140.083C66.3854 140.083 66.2344 140.099 66.0833 140.115C66.5208 139.38 66.7135 138.536 66.6615 137.708L74.5208 145.641C75.7031 146.859 75.6979 148.813 74.5 150.021Z" fill="black"/>
<path d="M68.724 146.422L67.2917 147.87L65.8594 149.313C64.6562 150.526 62.7031 150.526 61.5 149.313C60.9219 148.724 60.599 147.943 60.599 147.115C60.599 146.281 60.9219 145.5 61.5 144.911L62.9323 143.469L64.0417 142.349L64.3646 142.026C64.9479 141.438 65.7187 141.115 66.5417 141.115C67.3646 141.115 68.1406 141.438 68.724 142.026C69.9219 143.24 69.9219 145.214 68.724 146.422Z" fill="black"/>
<path d="M64.75 140.177L63.6406 141.297L62.2135 142.74C62.2135 142.74 62.2135 142.74 62.2135 142.745L60.7812 144.188C59.5781 145.401 57.625 145.401 56.4219 144.188C55.224 142.974 55.224 141.005 56.4167 139.792C56.4219 139.792 56.4219 139.792 56.4219 139.787L59.8385 136.344L60.401 135.776C61.599 134.573 63.5417 134.573 64.7448 135.776C64.75 135.776 64.75 135.781 64.75 135.781L64.776 135.802C65.9531 137.021 65.9479 138.974 64.75 140.177Z" fill="black"/>
<path d="M60.5469 134.172L59.6771 135.047C59.6771 135.052 59.6771 135.052 59.6719 135.052L57.1354 137.615L55.7031 139.063H55.6979C54.4948 140.271 52.5469 140.271 51.3437 139.063C50.1406 137.849 50.1406 135.875 51.3437 134.667L54.7604 131.219L56.1927 129.771C57.3906 128.557 59.349 128.557 60.5469 129.771C61.75 130.984 61.75 132.958 60.5469 134.172Z" fill="black"/>
<path d="M56.3698 126.844C56.3698 127.677 56.0521 128.458 55.4688 129.047L50.625 133.938C49.4219 135.146 47.4687 135.146 46.2656 133.938C45.0625 132.724 45.0625 130.75 46.2656 129.542L47.6927 128.099C47.6927 128.099 47.6927 128.099 47.6979 128.094C47.6979 128.094 47.6979 128.094 47.7031 128.089L51.1146 124.646C51.6927 124.063 52.4687 123.74 53.2917 123.734C53.7031 123.734 54.099 123.818 54.4688 123.974C54.8385 124.125 55.1771 124.354 55.4688 124.646C56.0521 125.234 56.3698 126.016 56.3698 126.844Z" fill="black"/>
<path d="M105.266 109.802C105.266 110.474 105.01 111.104 104.542 111.578L102.141 114C101.672 114.474 101.047 114.729 100.38 114.729C99.7135 114.729 99.0885 114.474 98.6198 114L88.7135 104.005L82.3385 97.5677C82.3333 97.5677 82.3333 97.5625 82.3333 97.5625L79.9219 95.1302C78.9531 94.1511 78.9531 92.5573 79.9219 91.5782L82.3229 89.1563C82.7917 88.6823 83.4167 88.4271 84.0833 88.4271C84.75 88.4271 85.375 88.6823 85.8385 89.1563L104.542 108.026C105.01 108.5 105.266 109.13 105.266 109.802Z" fill="black"/>
<path d="M58.2969 94.7708L55.8802 97.2083C55.8594 97.2292 55.8437 97.2396 55.8385 97.25L42.3125 110.901L39.599 113.641C39.1302 114.109 38.5052 114.37 37.8333 114.37C37.1667 114.37 36.5469 114.109 36.0781 113.641L33.6771 111.214C32.7031 110.24 32.7031 108.646 33.6771 107.661L52.375 88.7917C52.8437 88.3229 53.4687 88.0625 54.1354 88.0625C54.8021 88.0625 55.4271 88.3229 55.8958 88.7917L58.2969 91.2188C59.2656 92.1979 59.2656 93.7917 58.2969 94.7708Z" fill="black"/>
<path d="M90.6354 135.536C89.4323 136.75 87.4792 136.75 86.276 135.536H86.2708L74.5833 123.74C74.3854 123.542 74.0625 123.542 73.8646 123.74C73.6615 123.943 73.6615 124.266 73.8646 124.469L87.2031 137.932C88.4063 139.146 88.4063 141.115 87.2031 142.328C86.6198 142.917 85.849 143.24 85.026 143.24C84.1979 143.24 83.4271 142.917 82.8438 142.328L69.5052 128.865C69.3021 128.667 68.9792 128.667 68.7813 128.865C68.5833 129.068 68.5833 129.391 68.7813 129.594L80.849 141.771L80.8542 141.776C81.4375 142.365 81.7552 143.146 81.7552 143.974C81.7552 144.807 81.4375 145.588 80.8542 146.177C79.651 147.385 77.6979 147.385 76.4948 146.177L75.2448 144.911C75.2396 144.906 75.2292 144.901 75.224 144.891C75.2188 144.891 75.2188 144.885 75.2135 144.885L65.4948 135.078C65.4896 135.068 65.4844 135.062 65.474 135.052C64.5313 134.099 63.2344 133.713 62.0052 133.885C62.8125 132.328 62.5677 130.354 61.2708 129.047C60.1771 127.943 58.6198 127.594 57.2292 127.995C57.3333 127.63 57.3906 127.24 57.3906 126.844C57.3906 125.74 56.9635 124.698 56.1927 123.917C55.4167 123.135 54.3854 122.703 53.2917 122.703C52.1979 122.708 51.1667 123.135 50.3906 123.917L47.349 126.99C40.5417 119.703 40.7552 114.693 40.8542 113.828L48.3385 106.271L56.5781 97.9583C56.7292 97.8072 59.1563 95.5156 64.776 95.3176C66.724 95.2499 68.6615 95.2395 70.3854 95.2656C66.974 96.7551 64.5781 99.3645 64.3594 99.6041L52.3906 111.682C51.6146 112.463 51.1875 113.5 51.1875 114.609C51.1875 115.713 51.6146 116.75 52.3906 117.531C53.9896 119.146 56.5937 119.151 58.1927 117.536C58.1979 117.531 58.1979 117.531 58.2031 117.526L65.4896 110.167C66.6927 108.958 68.651 108.958 69.8542 110.167L90.6354 131.141C91.8333 132.354 91.8333 134.328 90.6354 135.536Z" fill="black"/>
<path d="M89.2656 128.302L70.5729 109.443C69.7708 108.635 68.724 108.229 67.6719 108.229C66.625 108.229 65.5729 108.635 64.7708 109.443L57.474 116.807C57.4687 116.807 57.4687 116.813 57.4635 116.813C56.2656 118.021 54.3125 118.016 53.1146 116.807C52.5312 116.219 52.2083 115.438 52.2083 114.609C52.2083 113.776 52.5312 112.995 53.1146 112.411L65.0885 100.323C65.099 100.318 65.1042 100.307 65.1094 100.302C65.151 100.255 69.0104 95.9896 73.7917 95.3438C75.3385 95.3958 76.4479 95.4583 76.8125 95.4792L76.8698 95.4844C78.5573 95.8802 80.1458 96.8177 81.6094 98.2917L91.0521 107.818L97.5677 114.396C97.6771 114.922 98.0052 118.578 89.2656 128.302Z" fill="black"/>
<path d="M114.38 99.8803C114.38 101.083 113.411 102.063 112.214 102.063C111.021 102.063 110.052 101.083 110.052 99.8803C110.052 99.4636 110.172 99.073 110.37 98.7449L109.016 97.3751L106.172 94.5053L100.729 99.9897C100.729 99.9949 100.729 99.9949 100.724 99.9949V100L100.443 100.281C100.344 100.38 100.214 100.432 100.083 100.432C99.9531 100.432 99.8229 100.38 99.7187 100.281C99.5208 100.078 99.5208 99.7553 99.7187 99.5522L100.005 99.2657C100.01 99.2605 100.01 99.2605 100.016 99.2553L105.807 93.4115C105.906 93.3126 106.036 93.2605 106.167 93.2605C106.297 93.2605 106.432 93.3126 106.531 93.4115L109.333 96.2345L111.094 98.0157C111.422 97.8126 111.807 97.698 112.214 97.698C113.411 97.698 114.38 98.6772 114.38 99.8803Z" fill="black"/>
<path d="M94.9531 87.974L91.8854 91.0677L91.599 91.3594C91.4948 91.4583 91.3698 91.5052 91.2396 91.5052C91.1042 91.5052 90.974 91.4583 90.875 91.3542C90.6771 91.151 90.6771 90.8281 90.8802 90.625L91.1406 90.3646C91.1458 90.3542 91.1562 90.3437 91.1667 90.3333L93.8698 87.6094L92.6615 86.3854L90.3854 84.0885C90.0521 84.2969 89.6667 84.4115 89.2604 84.4115C88.6823 84.4115 88.1406 84.1875 87.7344 83.776C86.8854 82.9219 86.8854 81.5365 87.7292 80.6875C88.1406 80.276 88.6823 80.0469 89.2604 80.0469C89.8385 80.0469 90.3802 80.276 90.7917 80.6875C91.5104 81.4115 91.6146 82.5208 91.1042 83.3646L93.1458 85.4167L94.9531 87.2396C95 87.2917 95.0365 87.349 95.0625 87.4115C95.0885 87.474 95.1042 87.5417 95.1042 87.6094C95.1042 87.7448 95.0469 87.875 94.9531 87.974Z" fill="black"/>
<mask id="mask0_47_134" style="mask-type:luminance" maskUnits="userSpaceOnUse" x="97" y="85" width="20" height="14">
<path d="M97.6667 85.6667H116.812V99.0001H97.6667V85.6667Z" fill="white"/>
</mask>
<g mask="url(#mask0_47_134)">
<path d="M116.719 88.4688C116.719 89.6771 115.75 90.6563 114.552 90.6563C113.516 90.6563 112.646 89.9115 112.438 88.9271L108.031 88.9219L98.6146 98.4271C98.5156 98.5313 98.3802 98.5834 98.25 98.5834C98.1198 98.5834 97.9896 98.5313 97.8906 98.4323C97.6927 98.2292 97.6927 97.9063 97.8906 97.7032L98.1719 97.4167L107.458 88.0469C107.552 87.948 107.682 87.8959 107.818 87.8959H112.469C112.719 86.974 113.557 86.2865 114.552 86.2865C115.75 86.2865 116.719 87.2657 116.719 88.4688Z" fill="black"/>
</g>
<mask id="mask1_47_134" style="mask-type:luminance" maskUnits="userSpaceOnUse" x="92" y="76" width="10" height="18">
<path d="M92.3333 76.401H101.667V93.6666H92.3333V76.401Z" fill="white"/>
</mask>
<g mask="url(#mask1_47_134)">
<path d="M99.8125 86.9166L93.5104 93.2812C93.4115 93.3854 93.2812 93.4323 93.1458 93.4323C93.0208 93.4323 92.8854 93.3854 92.7865 93.2864C92.5885 93.0833 92.5885 92.7552 92.7865 92.5573L93.0729 92.2656L98.9427 86.3437L98.9375 80.7291C97.9531 80.5208 97.2083 79.6406 97.2083 78.5885C97.2083 77.3854 98.1771 76.401 99.3698 76.401C100.562 76.401 101.536 77.3854 101.536 78.5885C101.536 79.5885 100.865 80.427 99.9583 80.6875L99.9635 86.552C99.9635 86.6927 99.9115 86.8229 99.8125 86.9166Z" fill="black"/>
</g>
<path d="M98.9271 92.7865L96.2604 95.4792C96.2552 95.4844 96.25 95.4844 96.25 95.4896C96.2448 95.4896 96.2448 95.4948 96.2396 95.4948L95.9688 95.7656C95.8698 95.8698 95.7396 95.9167 95.6094 95.9167C95.4792 95.9167 95.349 95.8698 95.25 95.7656C95.0521 95.5677 95.0521 95.2396 95.25 95.0365L95.526 94.7604C95.5313 94.7552 95.5365 94.75 95.5365 94.75L98.2865 91.974C98.0885 91.6406 97.9688 91.2552 97.9688 90.8385C97.9688 89.6354 98.9427 88.6562 100.135 88.6562C101.328 88.6562 102.297 89.6354 102.297 90.8385C102.297 92.0469 101.328 93.026 100.135 93.026C99.7188 93.026 99.3385 92.9063 99.0104 92.7031L98.9271 92.7865Z" fill="black"/>
<path d="M42.7344 94.9167C42.9323 95.1146 42.9323 95.4427 42.7344 95.6458C42.6302 95.7448 42.5 95.7917 42.3698 95.7917C42.2396 95.7917 42.1094 95.7448 42.0104 95.6458L41.8542 95.4844C41.8489 95.4792 41.8489 95.4792 41.8489 95.4792L39.0989 92.7031C38.7708 92.9063 38.3854 93.026 37.9739 93.026C36.7812 93.026 35.8073 92.0469 35.8073 90.8385C35.8073 89.6354 36.7812 88.6562 37.9739 88.6562C39.1667 88.6562 40.1354 89.6354 40.1354 90.8385C40.1354 91.2552 40.0156 91.6406 39.8177 91.974L42.5677 94.75C42.5781 94.7604 42.5885 94.7708 42.5937 94.7813L42.7344 94.9167Z" fill="black"/>
<path d="M50.375 83.776C49.9635 84.1875 49.4219 84.4115 48.8438 84.4115C48.4375 84.4115 48.0521 84.2969 47.7188 84.0885L44.2344 87.6042L46.9427 90.3385L47.1042 90.5C47.3021 90.6979 47.3073 91.026 47.1094 91.2292C47.0052 91.3281 46.875 91.3802 46.7448 91.3802C46.6146 91.3802 46.4844 91.3281 46.3854 91.2292L46.2292 91.0729C46.224 91.0729 46.224 91.0677 46.2188 91.0677L43.151 87.974C43.0573 87.875 43 87.7448 43 87.6094C43 87.474 43.0573 87.3385 43.151 87.2448L46.9948 83.3646C46.7917 83.026 46.6823 82.6354 46.6823 82.2292C46.6823 81.6458 46.9063 81.099 47.3177 80.6875C47.724 80.276 48.2656 80.0469 48.8438 80.0469C49.4219 80.0469 49.9635 80.276 50.375 80.6875C51.2188 81.5365 51.2188 82.9219 50.375 83.776Z" fill="black"/>
<mask id="mask2_47_134" style="mask-type:luminance" maskUnits="userSpaceOnUse" x="21" y="85" width="20" height="14">
<path d="M21.2969 85.6667H40.3333V99.0001H21.2969V85.6667Z" fill="white"/>
</mask>
<g mask="url(#mask2_47_134)">
<path d="M40.0937 98.3073C39.9948 98.4063 39.8594 98.4584 39.7292 98.4584C39.599 98.4584 39.4687 98.4063 39.3698 98.3073L30.0781 88.9219L25.6667 88.9271C25.4583 89.9115 24.5885 90.6563 23.5521 90.6563C22.3594 90.6563 21.3854 89.6771 21.3854 88.4688C21.3854 87.2657 22.3594 86.2865 23.5521 86.2865C24.5469 86.2865 25.3854 86.974 25.6354 87.8959H30.2865C30.4219 87.8959 30.5521 87.948 30.6458 88.0469L40.0937 97.5782C40.2917 97.7761 40.2917 98.1042 40.0937 98.3073Z" fill="black"/>
</g>
<mask id="mask3_47_134" style="mask-type:luminance" maskUnits="userSpaceOnUse" x="36" y="76" width="10" height="18">
<path d="M36.3333 76.401H45.6667V93.6666H36.3333V76.401Z" fill="white"/>
</mask>
<g mask="url(#mask3_47_134)">
<path d="M45.1979 92.427C45.3958 92.6302 45.3958 92.9531 45.1979 93.1562C45.0937 93.2552 44.9635 93.3073 44.8333 93.3073C44.7031 93.3073 44.5729 93.2552 44.474 93.1562L38.2917 86.9166C38.1927 86.8229 38.1406 86.6875 38.1406 86.552L38.1458 80.6875C37.2396 80.427 36.5729 79.5885 36.5729 78.5885C36.5729 77.3854 37.5417 76.401 38.7344 76.401C39.9271 76.401 40.8958 77.3854 40.8958 78.5885C40.8958 79.6406 40.1562 80.5208 39.1667 80.7291L39.1615 86.3437L45.1979 92.427Z" fill="black"/>
</g>
<path d="M38.2604 99.4323C38.4583 99.6302 38.4583 99.9531 38.2604 100.156C38.1615 100.255 38.0312 100.307 37.901 100.307C37.7708 100.307 37.6354 100.255 37.5365 100.156L37.375 99.9896L31.9375 94.5052L27.7344 98.7448C27.9323 99.0729 28.0521 99.4635 28.0521 99.8802C28.0521 101.083 27.0833 102.062 25.8906 102.062C24.6979 102.062 23.7292 101.083 23.7292 99.8802C23.7292 98.6771 24.6979 97.6979 25.8906 97.6979C26.3021 97.6979 26.6823 97.8177 27.0104 98.0156L31.5729 93.4115C31.599 93.3854 31.625 93.3646 31.6562 93.3437C31.6823 93.3229 31.7135 93.3125 31.7448 93.2969C31.8958 93.2344 32.0677 93.25 32.2083 93.3385C32.2083 93.3437 32.2135 93.3437 32.2187 93.3437C32.2187 93.349 32.224 93.349 32.224 93.3542C32.25 93.3698 32.276 93.3906 32.2969 93.4115L38.099 99.2656C38.1042 99.2708 38.1146 99.2812 38.125 99.2917L38.2604 99.4323Z" fill="black"/>
<path d="M50.3124 20.0938C55.2499 20.0938 58.8854 22.0677 61.2031 26.0208C63.5364 29.974 64.7031 34.9844 64.7031 41.0573C64.7031 43.5052 64.3749 46.3646 63.7239 49.6406C63.0676 52.9167 61.677 55.9427 59.552 58.7239C57.4374 61.4948 54.3541 62.8802 50.3124 62.8802C46.9218 62.8802 44.026 62.0573 41.6197 60.4114V61.3281C41.6197 61.6614 41.5885 61.8958 41.5208 62.0364C41.4479 62.1719 41.2708 62.2396 40.9843 62.2396C40.9843 62.1927 40.7968 62.1614 40.4166 62.1354C40.0364 62.1146 39.5624 62.1042 38.9999 62.1042C38.2083 62.1042 37.5156 62.125 36.9166 62.1719C36.3281 62.2187 35.9427 62.2396 35.7604 62.2396H35.4687C35.2395 62.2396 35.0468 62.1823 34.901 62.0677C34.7604 61.9531 34.6927 61.7291 34.6927 61.3958L34.8489 58.776L34.9843 55.8125L35.125 37.4531C35.1666 36.8437 35.1927 36.0208 35.1927 34.9844V31.1771C35.1927 29.474 35.0781 26.3438 34.8489 21.7813L34.552 13.5938C34.552 12.6511 34.5677 11.9844 34.5885 11.5938C34.6093 11.1927 34.6249 10.9167 34.6249 10.7656C34.6249 10.4896 34.6822 10.2813 34.7968 10.1458C34.9218 9.9948 35.177 9.92189 35.552 9.92189L39.8437 9.85418C40.0416 9.85418 40.2447 9.82814 40.4479 9.78126C40.6666 9.7396 40.8906 9.71355 41.1197 9.71355C41.4999 9.71355 41.6927 9.87501 41.6927 10.1979L41.7604 14.8021L41.8281 22.2813C44.3229 20.8229 47.151 20.0938 50.3124 20.0938ZM50.0156 55.6719C52.9843 55.6719 55.3593 54.4271 57.1562 51.9323C58.9479 49.4375 59.8437 45.8125 59.8437 41.0573C59.8437 36.8281 58.9374 33.8021 57.1197 31.9896C55.302 30.1719 53.1718 29.2656 50.7239 29.2656C49.0781 29.2656 47.4427 29.6198 45.8124 30.3333C44.1927 31.0313 42.8645 32.0208 41.8281 33.2969V33.5729C41.8281 35.5937 41.8072 37.0781 41.7604 38.0208C41.7135 38.8698 41.6927 39.9062 41.6927 41.125V50.4479C42.5416 52.0469 43.6562 53.3177 45.0364 54.2604C46.427 55.2031 48.0885 55.6719 50.0156 55.6719ZM82.0103 62.3125C81.9635 62.3125 81.5989 62.2656 80.9062 62.1719C80.2291 62.0781 79.3228 62.0364 78.1822 62.0364L72.7551 62.1042C72.052 62.1042 71.7031 61.8229 71.7031 61.2604C71.7031 61.0625 71.7135 60.4271 71.7343 59.3437C71.7603 58.2656 71.7708 56.4062 71.7708 53.776C71.7708 51.0885 71.8489 48.4948 72.0103 46C72.1718 43.5104 72.2551 42.1198 72.2551 41.8281L72.6822 29.0573L72.7551 21.7813C72.7551 21.2656 72.8749 20.9844 73.1145 20.9375C73.3437 20.9375 73.8541 20.9583 74.651 21.0052C75.4531 21.0521 76.4687 21.0729 77.703 21.0729C78.6458 21.0729 79.5676 21.0521 80.4739 21.0052C81.3958 20.9583 81.9531 20.9375 82.151 20.9375C82.2864 20.9375 82.4114 21.0208 82.526 21.1979C82.6562 21.3542 82.7187 21.4844 82.7187 21.5729L82.8541 23.5573C84.453 22.5104 86.3228 21.625 88.4583 20.901C90.6093 20.1771 92.2447 19.8177 93.3697 19.8177C93.6562 19.8177 93.8489 19.8385 93.9374 19.8854C94.0312 19.9323 94.1353 20.1302 94.2499 20.4896C94.3749 20.8333 94.4843 21.125 94.578 21.3698C95.0468 22.5417 95.3541 23.9479 95.4895 25.5938C95.5364 26.349 95.651 27.224 95.8385 28.2135C95.9374 28.6354 95.9895 29.1563 95.9895 29.7656C95.9895 30.1406 95.9687 30.3542 95.9218 30.401C95.5416 30.9635 94.9739 31.3542 94.2135 31.5729C93.4687 31.7813 92.3645 31.974 90.9062 32.1615C89.0676 32.3542 87.4843 32.6354 86.1666 33.0052L83.0624 33.7135L83.1301 36.5365C83.1301 38.0885 83.1562 38.8958 83.1978 38.9531L83.2708 44.9531C83.3749 48.0521 83.4218 52.2865 83.4218 57.6562C83.4218 59.7239 83.3281 61.1146 83.1301 61.8281C83.1301 62.151 82.7551 62.3125 82.0103 62.3125ZM116.239 63.6562C109.187 63.6562 104.479 61.2708 102.125 56.5C99.7655 51.7187 98.5885 46.5937 98.5885 41.125C98.5885 35.8594 99.3905 31.6406 100.984 28.4688C102.594 25.2865 104.536 23.0625 106.812 21.7969C109.099 20.526 111.396 19.8854 113.708 19.8854C118.042 19.8854 121.297 21.1302 123.484 23.625C125.677 26.1198 127.088 29.026 127.724 32.349C128.354 35.6615 128.672 39.2448 128.672 43.1042C128.672 43.4375 128.437 43.651 127.963 43.7448C126.411 43.7448 122.838 44.0052 117.239 44.5208C116.344 44.6094 115.26 44.7187 113.984 44.849C112.719 44.9635 111.312 45.0677 109.76 45.1562C110.172 49.7187 112.646 52 117.172 52C118.677 52 119.838 51.8646 120.656 51.5885C121.484 51.3021 122.818 50.7083 124.656 49.8125C124.974 49.8125 125.271 50 125.531 50.3802C125.797 50.7604 126.167 51.5365 126.635 52.7083C126.776 52.9479 126.948 53.3958 127.156 54.0521C127.37 54.7083 127.573 55.2031 127.755 55.5364C128.656 57.7969 129.078 58.9792 129.031 59.0677C128.943 59.2552 128.682 59.5104 128.255 59.8437C127.271 60.8333 125.677 61.7135 123.484 62.4844C121.297 63.2656 118.885 63.6562 116.239 63.6562ZM117.948 40.349C117.568 34.9792 116.271 32.2969 114.052 32.2969C112.745 32.2969 111.729 33.0677 111.021 34.6094C110.318 36.1354 109.896 38.2865 109.76 41.0573L117.948 40.349ZM144.344 62.8802C140.906 62.8802 138.156 62.1927 136.083 60.8281C134.016 59.4583 132.984 57.0365 132.984 53.5521C133.213 51.3021 134.88 49.6354 137.984 48.5521C141.099 47.4635 144.583 46.9167 148.448 46.9167C149.667 46.9167 151.125 46.8229 152.823 46.6406C154.516 46.4583 156.068 46.3646 157.479 46.3646C157.297 41.2708 156.979 37.2812 156.531 34.3854C156.083 31.4896 155.328 29.3073 154.271 27.849C153.213 26.3906 151.719 25.6615 149.792 25.6615C148.375 25.6615 147.031 25.9948 145.755 26.6615C144.495 27.3177 142.917 28.349 141.031 29.7656C139.484 30.8906 138.708 31.4531 138.708 31.4531C138.661 31.4531 138.505 31.5365 138.239 31.7135C137.989 31.8698 137.739 31.9323 137.5 31.8854C137.073 31.7917 136.859 31.5781 136.859 31.2448C136.677 30.9583 136.453 30.3229 136.187 29.3333C135.937 28.3438 135.812 27.6406 135.812 27.2292C135.812 26.9427 136.094 26.6094 136.656 26.2292C139.057 24.4479 141.088 23.1198 142.755 22.2448C144.437 21.375 145.87 20.8229 147.068 20.5938C148.26 20.349 149.667 20.2292 151.271 20.2292C155.974 20.2292 159.135 21.75 160.755 24.7813C162.385 27.8177 163.203 31.8542 163.203 36.901C163.203 38.2083 163.156 40 163.062 42.2604C163.062 43.6302 162.969 45.6302 162.771 48.2604L162.703 49.9479L162.771 54.1198C162.875 56.0052 162.927 57.4427 162.927 58.4323L162.838 60.5521C162.75 61.6302 162.328 62.1719 161.583 62.1719L161.016 62.1042H158.114C157.932 62.1042 157.755 62.0208 157.583 61.8646C157.422 61.6875 157.344 61.4896 157.344 61.2604V60.6875C154.516 61.4948 152.25 62.0573 150.547 62.3802C148.859 62.7135 146.792 62.8802 144.344 62.8802ZM144.411 58.8646C149.458 58.8646 153.766 58.0104 157.344 56.3125L157.547 49.7448C155.344 49.5573 153.437 49.4687 151.844 49.4687L147.672 49.5365C145.406 49.5365 143.38 49.974 141.583 50.849C139.802 51.7083 138.844 52.9219 138.708 54.4844C138.708 56.1719 139.104 57.3281 139.896 57.9479C140.698 58.5573 142.203 58.8646 144.411 58.8646ZM174.213 62.1719C173.786 62.1719 173.552 62.151 173.505 62.1042C173.229 62.1042 173.094 61.9896 173.094 61.7604C173.094 61.6094 173.114 61.4531 173.161 61.2917C173.208 61.1302 173.255 60.9791 173.297 60.8281C173.344 60.5052 173.297 59.8958 173.161 59C173.01 57.7239 172.937 57.0417 172.937 56.9479L172.87 51.8646C172.87 43.8177 172.963 39.3229 173.161 38.3854C173.208 37.625 173.229 35.6458 173.229 32.4531L173.161 25.3854C173.161 21.0052 173.141 18.724 173.094 18.5417C173.036 18.2083 173.005 17.3802 173.005 16.0573C172.958 14.8854 172.958 13.7031 173.005 12.5052C173.062 11.3021 173.141 10.5313 173.229 10.1979C173.229 9.82814 173.443 9.64584 173.87 9.64584C174.052 9.64584 174.25 9.6823 174.453 9.75001C174.672 9.81772 174.875 9.85418 175.057 9.85418C175.531 9.85418 176.224 9.8646 177.146 9.88543C178.062 9.91147 178.828 9.90105 179.437 9.85418H179.797C180.167 9.85418 180.385 9.93751 180.453 10.1094C180.536 10.2708 180.573 10.4636 180.573 10.6823C180.573 10.8854 180.573 11.0156 180.573 11.0573C180.62 11.474 180.63 11.9688 180.609 12.5417C180.583 13.1042 180.599 13.7813 180.641 14.5781L180.713 16.9896V22.9896C180.713 28.2656 180.667 31.276 180.573 32.0208L180.505 34.1406C180.505 34.5208 180.526 34.8646 180.573 35.1771C180.62 35.474 180.641 35.7917 180.641 36.125L180.713 39.5052L181.693 38.5208L183.401 36.7604C184.333 35.8177 185.292 34.7552 186.281 33.5729C187.37 32.3542 188.224 31.4375 188.833 30.8125C189.255 30.1615 191.14 28.1615 194.484 24.8177C194.578 24.724 195.198 24.0781 196.349 22.8854C197.51 21.6771 198.37 21.0521 198.932 21.0052H201.328C201.614 21.0521 201.76 21.1979 201.76 21.4375C201.76 21.6198 201.661 21.8073 201.469 21.9896C201.375 22.0938 201.094 22.4271 200.625 22.9896C200.151 23.5521 199.682 24.0208 199.208 24.401C198.312 25.2969 197.005 26.6667 195.281 28.5052C193.568 30.3333 192.594 31.4583 192.364 31.8854L188.693 35.901L185.505 39.2292L186.573 40.4323L187.625 41.625C188.948 43.1771 190.01 44.3542 190.812 45.1562C191.182 45.4896 192.641 47.1406 195.193 50.1042C197.213 52.5052 198.385 53.8437 198.708 54.1198C199.286 54.5469 200.838 56.2656 203.38 59.276L204.797 60.8958C204.885 61.1823 204.932 61.3489 204.932 61.3958C204.932 61.6823 204.599 61.8281 203.932 61.8281L196.245 62.0364C195.771 62.0364 195.38 61.9635 195.073 61.8281C194.771 61.6771 194.411 61.3906 193.984 60.9635C193.849 60.8281 192.479 59.1823 189.885 56.0364L186.213 51.5885C185.37 50.7396 184.312 49.5573 183.042 48.0521L180.781 45.6562C180.828 45.9323 180.849 46.7083 180.849 47.9844C180.849 49.2031 180.828 49.9583 180.781 50.2448V58.0885C180.781 59.1667 180.849 60.125 180.989 60.9635C181.031 61.0677 181.057 61.2135 181.057 61.3958C181.057 61.6354 180.989 61.7917 180.849 61.8646C180.713 61.9323 180.521 61.9635 180.281 61.9635H177.885L176.469 62.0364C175.437 62.125 174.682 62.1719 174.213 62.1719ZM233.172 62.3802C231.286 62.3802 229.87 62.0989 228.927 61.5364C227.984 60.9687 227.37 60.1823 227.083 59.1719C226.807 58.1614 226.672 56.7812 226.672 55.0365L226.739 50.6562L227.104 42.3281L227.307 36.125V25.8177C225.047 25.8177 223.75 25.4375 223.432 24.6771C223.281 24.2969 223.203 23.8958 223.203 23.4688C223.203 23.0104 223.239 22.5677 223.307 22.1458C223.39 21.7188 223.432 21.3177 223.432 20.9375C224.271 20.9844 225.562 21.0052 227.307 21.0052L227.375 20.7292L227.448 18.0417V15.0052C227.401 13.8802 227.479 13.1146 227.687 12.7136C227.906 12.3125 228.229 12.1094 228.651 12.1094C228.885 12.1094 229.073 12.1354 229.224 12.1823H229.359C229.453 12.1823 229.614 12.1667 229.844 12.1458C230.083 12.125 230.297 12.1563 230.479 12.25C231.422 12.3958 231.896 12.8021 231.896 13.4531C231.896 13.5938 231.849 14.1354 231.755 15.0781C231.526 16.7188 231.359 18.6979 231.255 21.0052H238.047C238.417 21.0052 238.713 21.3281 238.943 21.974C239.187 22.6042 239.307 23.2708 239.307 23.9688C239.307 24.9115 239.094 25.4531 238.667 25.5938C237.786 25.8802 236.703 26.0208 235.427 26.0208C234.302 26.0208 232.89 25.9323 231.187 25.7448V42.4687L231.12 45.2969C230.979 47.1354 230.911 49.0417 230.911 51.0208V52.4323C230.911 53.9375 231.239 55.0573 231.896 55.7917C232.562 56.5156 233.432 56.8802 234.515 56.8802C235.547 56.8802 236.437 56.8437 237.187 56.776C237.943 56.7083 238.489 56.6719 238.823 56.6719C239.344 56.6719 239.599 57.5885 239.599 59.4167L239.875 60.5521C240.015 60.8854 239.989 61.0729 239.807 61.1198C238.302 61.6823 237.182 62.0364 236.443 62.1719C235.719 62.3125 234.63 62.3802 233.172 62.3802ZM252.307 62.1042C250.708 62.0573 249.01 62.0364 247.219 62.0364C245.854 62.0364 245.167 61.3489 245.167 59.9844L245.239 45.9323V43.0365C245.193 42.2344 245.167 41.2448 245.167 40.0729C245.167 38.8542 245.239 36.9479 245.375 34.349C245.526 32.6146 245.646 29.1094 245.739 23.8333C245.828 18.5573 245.875 14.9115 245.875 12.8854C245.875 11.6667 245.989 10.7761 246.219 10.2136C246.463 9.64064 246.864 9.37501 247.427 9.42189C248.047 9.46876 248.875 9.4896 249.911 9.4896C251.083 9.4896 251.901 9.44272 252.375 9.35418C252.984 9.21355 253.401 9.46876 253.63 10.1094C253.875 10.7448 253.995 11.4583 253.995 12.25L253.927 20.7969L255.338 20.1615C256.614 19.5521 257.849 19.0833 259.047 18.75C260.239 18.4167 261.901 18.25 264.026 18.25C266.995 18.25 269.297 18.8646 270.943 20.0938C272.594 21.3125 273.807 23.5208 274.578 26.7292C275.359 29.9219 275.75 34.5833 275.75 40.7083C275.75 48.6146 275.729 53.1094 275.682 54.1927L275.75 60.5521C275.75 61.0208 275.677 61.401 275.526 61.6875C275.385 61.9635 275.203 62.1042 274.974 62.1042H268.406C267.979 62.1042 267.724 61.9531 267.63 61.6562C267.536 61.3437 267.495 60.8542 267.495 60.1875C267.495 59.8698 267.515 59.3802 267.562 58.7239C267.609 58.0573 267.63 57.2552 267.63 56.3125C267.63 55.7031 267.583 55.0677 267.495 54.4167C267.437 54.1719 267.458 52.2448 267.562 48.625C267.698 42.1198 267.771 38.5156 267.771 37.8125C267.771 34.6094 267.614 32.125 267.302 30.3646C267.005 28.599 266.396 27.2917 265.474 26.4531C264.557 25.6042 263.177 25.1771 261.338 25.1771C258.375 25.1771 255.901 26.0677 253.927 27.849C253.698 33.5052 253.583 39.0156 253.583 44.3802C253.583 46.9219 253.651 50.875 253.786 56.2396L253.854 59.7083C253.854 60.4531 253.76 61.0417 253.562 61.4635C253.38 61.8906 252.958 62.1042 252.307 62.1042ZM299.109 63.6562C292.052 63.6562 287.344 61.2708 284.989 56.5C282.635 51.7187 281.453 46.5937 281.453 41.125C281.453 35.8594 282.255 31.6406 283.849 28.4688C285.458 25.2865 287.401 23.0625 289.677 21.7969C291.963 20.526 294.265 19.8854 296.573 19.8854C300.906 19.8854 304.167 21.1302 306.349 23.625C308.541 26.1198 309.958 29.026 310.588 32.349C311.219 35.6615 311.536 39.2448 311.536 43.1042C311.536 43.4375 311.302 43.651 310.828 43.7448C309.276 43.7448 305.703 44.0052 300.109 44.5208C299.213 44.6094 298.125 44.7187 296.849 44.849C295.583 44.9635 294.177 45.0677 292.625 45.1562C293.042 49.7187 295.51 52 300.036 52C301.542 52 302.703 51.8646 303.521 51.5885C304.349 51.3021 305.682 50.7083 307.521 49.8125C307.844 49.8125 308.135 50 308.401 50.3802C308.661 50.7604 309.031 51.5365 309.505 52.7083C309.64 52.9479 309.812 53.3958 310.021 54.0521C310.239 54.7083 310.437 55.2031 310.625 55.5364C311.521 57.7969 311.943 58.9792 311.901 59.0677C311.807 59.2552 311.547 59.5104 311.125 59.8437C310.135 60.8333 308.541 61.7135 306.349 62.4844C304.167 63.2656 301.75 63.6562 299.109 63.6562ZM300.812 40.349C300.437 34.9792 299.135 32.2969 296.916 32.2969C295.609 32.2969 294.599 33.0677 293.885 34.6094C293.182 36.1354 292.765 38.2865 292.625 41.0573L300.812 40.349Z" stroke="black" stroke-width="12.2688"/>
<path d="M132.245 144.068C129.838 144.068 127.687 143.526 125.776 142.448C123.88 141.364 122.271 139.766 120.953 137.635C118.505 133.682 117.281 128.484 117.281 122.036C117.281 119.073 117.63 116.521 118.333 114.38C119.042 112.234 120.151 110.193 121.656 108.26C123.073 106.479 124.599 105.141 126.245 104.245C128.036 103.302 129.823 102.833 131.604 102.833C133.917 102.833 135.755 103.021 137.12 103.401C138.489 103.781 139.37 104.135 139.76 104.469C140.161 104.792 140.719 105.302 141.432 106.005L141.568 94.3488C141.568 93.1301 141.682 92.2551 141.911 91.7134C142.156 91.1718 142.557 90.9009 143.12 90.9009L146.224 90.9739C147.026 90.9739 147.641 90.927 148.068 90.8332C148.677 90.7291 149.099 90.9999 149.328 91.6457C149.568 92.2759 149.687 92.9738 149.687 93.7291L149.552 142.016C149.552 142.635 149.417 143.062 149.156 143.292C148.901 143.521 148.516 143.635 148 143.635C146.344 143.547 144.651 143.5 142.911 143.5C142.156 143.5 141.62 143.406 141.312 143.224C141.01 143.036 140.864 142.588 140.864 141.88V140.463C139.448 141.547 138.036 142.417 136.62 143.083C135.208 143.739 133.75 144.068 132.245 144.068ZM132.036 139.187C133.771 139.187 135.323 138.859 136.693 138.208C138.057 137.552 139.104 136.682 139.828 135.604C140.562 134.51 140.932 133.401 140.932 132.276C140.932 131.151 141.021 129.5 141.208 127.328L141.364 124.224C141.364 123.239 141.312 121.943 141.208 120.349C141.114 118.463 141.068 116.599 141.068 114.76C141.068 113.542 140.62 112.463 139.724 111.521C138.838 110.578 137.734 109.849 136.417 109.333C135.094 108.812 133.87 108.557 132.745 108.557C131.281 108.557 129.891 108.953 128.573 109.745C127.26 110.594 126.182 111.682 125.328 113.005C124.344 114.557 123.615 116.062 123.141 117.521C122.672 118.979 122.432 120.672 122.432 122.604C122.432 127.411 123.187 131.271 124.693 134.187C126.333 137.521 128.781 139.187 132.036 139.187ZM159.859 143.859C159.479 143.859 159.239 143.823 159.135 143.739C159.042 143.672 159 143.521 159 143.292C159 143.156 159.01 142.932 159.031 142.62C159.057 142.307 159.068 141.896 159.068 141.38L159.151 133.687L159.292 121.401C159.292 120.088 159.385 117.266 159.568 112.932C159.76 108.083 159.833 105.422 159.776 104.953L159.703 103.745C159.703 103.229 159.776 102.844 159.911 102.588C160.062 102.328 160.323 102.193 160.703 102.193L163.672 102.266C164.094 102.266 164.307 102.521 164.307 103.042C164.307 103.281 164.281 103.521 164.219 103.766C164.177 103.995 164.151 104.224 164.151 104.453C164.062 105.443 163.969 107.609 163.875 110.953C163.875 112.031 163.786 114.786 163.599 119.208C163.557 120.667 163.505 122.094 163.448 123.484C163.401 124.875 163.375 126.088 163.375 127.12C163.375 129.385 163.411 132.25 163.479 135.708C163.562 139.167 163.646 141.224 163.739 141.88C163.786 142.062 163.807 142.323 163.807 142.656C163.807 142.989 163.771 143.213 163.703 143.328C163.635 143.443 163.458 143.521 163.172 143.568C162.792 143.76 162.187 143.859 161.359 143.859C160.542 143.859 160.042 143.859 159.859 143.859ZM162.187 99.5936C161.198 99.5936 160.292 99.2186 159.463 98.4686C158.635 97.7134 158.224 96.7707 158.224 95.6457C158.224 94.6561 158.583 93.7707 159.307 92.9895C160.042 92.2082 160.906 91.8176 161.896 91.8176C163.078 91.8176 164.141 92.1249 165.083 92.7499C166.026 93.3541 166.495 94.203 166.495 95.2811C166.495 96.6041 166.026 97.6561 165.083 98.4374C164.141 99.2082 163.177 99.5936 162.187 99.5936ZM181.807 143.635C181.151 143.635 180.729 143.474 180.531 143.156C180.349 142.823 180.187 142.255 180.047 141.463C179.578 139.672 178.88 137.125 177.963 133.828C177.042 130.531 176.234 127.609 175.531 125.073C175.151 123.76 174.338 120.588 173.083 115.552C171.844 110.51 170.989 107.088 170.516 105.297L170.016 103.177C169.922 102.901 169.88 102.719 169.88 102.625C169.88 102.292 170.114 102.125 170.583 102.125C170.812 102.125 171.109 102.161 171.463 102.229C171.818 102.297 172.187 102.333 172.568 102.333L175.599 102.266L179.547 102.125C180.26 102.031 180.734 102.13 180.963 102.417C181.203 102.693 181.417 103.182 181.599 103.885C181.875 104.599 182.276 106.739 182.807 110.312L183.219 113.005C183.51 115.026 184.073 117.734 184.911 121.125L186.255 126.917L187.031 123.448C187.318 122.463 187.672 120.719 188.099 118.229C188.146 117.62 188.641 115.495 189.583 111.864C190.708 107.682 191.25 105.12 191.203 104.177C191.109 103.187 191.203 102.578 191.479 102.349C191.766 102.109 192.12 102 192.547 102.021C192.974 102.047 193.255 102.057 193.391 102.057C197.344 102.057 199.838 102.104 200.875 102.193C201.63 102.286 202.01 102.521 202.01 102.901C202.01 103.042 201.958 103.344 201.854 103.812C201.536 104.667 201.016 106.573 200.302 109.536L199.755 112.156C198.521 117.937 197.484 122.172 196.63 124.864C196.068 127.219 195.364 130.917 194.51 135.948C194.375 136.75 194.161 137.932 193.875 139.484C193.599 141.031 193.417 141.953 193.323 142.239C193.182 142.896 192.849 143.224 192.323 143.224L191.271 143.156C190.422 143.156 189.083 143.224 187.255 143.359C184.234 143.547 182.417 143.635 181.807 143.635ZM207.375 143.859C207 143.859 206.755 143.823 206.651 143.739C206.562 143.672 206.516 143.521 206.516 143.292C206.516 143.156 206.526 142.932 206.547 142.62C206.573 142.307 206.583 141.896 206.583 141.38L206.672 133.687L206.807 121.401C206.807 120.088 206.901 117.266 207.083 112.932C207.281 108.083 207.349 105.422 207.292 104.953L207.224 103.745C207.224 103.229 207.292 102.844 207.427 102.588C207.578 102.328 207.844 102.193 208.224 102.193L211.187 102.266C211.609 102.266 211.823 102.521 211.823 103.042C211.823 103.281 211.797 103.521 211.739 103.766C211.693 103.995 211.667 104.224 211.667 104.453C211.578 105.443 211.484 107.609 211.396 110.953C211.396 112.031 211.302 114.786 211.12 119.208C211.073 120.667 211.021 122.094 210.963 123.484C210.917 124.875 210.896 126.088 210.896 127.12C210.896 129.385 210.927 132.25 210.995 135.708C211.078 139.167 211.161 141.224 211.255 141.88C211.302 142.062 211.323 142.323 211.323 142.656C211.323 142.989 211.292 143.213 211.219 143.328C211.151 143.443 210.974 143.521 210.687 143.568C210.307 143.76 209.703 143.859 208.875 143.859C208.062 143.859 207.562 143.859 207.375 143.859ZM209.703 99.5936C208.713 99.5936 207.807 99.2186 206.979 98.4686C206.151 97.7134 205.739 96.7707 205.739 95.6457C205.739 94.6561 206.099 93.7707 206.823 92.9895C207.562 92.2082 208.422 91.8176 209.411 91.8176C210.594 91.8176 211.656 92.1249 212.599 92.7499C213.542 93.3541 214.016 94.203 214.016 95.2811C214.016 96.6041 213.542 97.6561 212.599 98.4374C211.656 99.2082 210.693 99.5936 209.703 99.5936ZM232.719 144.5C229.849 144.5 227.469 144.14 225.583 143.427C223.698 142.729 222.557 142.198 222.151 141.844C221.76 141.489 220.885 140.63 219.516 139.276C219.229 138.989 219.161 138.797 219.307 138.708C219.401 138.463 219.562 138.208 219.792 137.932L220.703 136.792C220.948 136.458 221.37 135.922 221.979 135.172C222.12 135.036 222.286 134.963 222.479 134.963C222.667 134.963 222.922 135.073 223.255 135.292C223.588 135.5 223.87 135.719 224.099 135.948C224.146 135.995 224.417 136.219 224.911 136.62C225.406 137.021 226.125 137.38 227.068 137.687C228.01 137.989 229.042 138.135 230.167 138.135C231.672 138.135 232.969 137.844 234.047 137.26C235.14 136.672 235.687 135.437 235.687 133.552C235.687 132.047 235.364 130.776 234.719 129.739C234.088 128.698 233.302 127.833 232.359 127.156C231.417 126.479 230.125 125.693 228.479 124.797C226.64 123.76 225.156 122.828 224.031 122C222.906 121.172 221.953 120.057 221.172 118.656C220.401 117.245 220.016 115.495 220.016 113.417C220.016 110.969 220.672 108.807 221.979 106.937C223.302 105.052 225.099 103.604 227.375 102.588C229.661 101.578 232.198 101.073 234.979 101.073C239.401 101.073 242.755 102.005 245.026 103.864C247.318 105.719 248.505 106.667 248.599 106.713C248.792 106.859 248.89 107.026 248.89 107.213C248.89 107.349 248.838 107.495 248.734 107.641C248.64 107.781 248.573 107.917 248.526 108.057C248.344 108.344 248.026 108.844 247.578 109.557C247.13 110.255 246.771 110.745 246.495 111.021C246.39 111.156 246.271 111.338 246.13 111.557C245.995 111.76 245.859 111.891 245.734 111.932C245.62 111.979 245.469 112.005 245.286 112.005C245.094 111.911 244.432 111.411 243.307 110.505C242.177 109.583 240.922 108.724 239.531 107.917C238.14 107.114 236.948 106.713 235.963 106.713C234.927 106.713 234.198 107.057 233.771 107.745C233.349 108.422 233.135 109.562 233.135 111.156C233.135 112.344 233.417 113.338 233.979 114.141C234.552 114.932 235.099 115.495 235.614 115.828C236.135 116.151 237.12 116.693 238.583 117.453C240.318 118.151 241.833 118.88 243.13 119.641C244.432 120.385 245.677 121.703 246.875 123.588C248.068 125.474 248.667 127.969 248.667 131.068C248.667 140.021 243.349 144.5 232.719 144.5ZM256.021 143.859C255.646 143.859 255.401 143.823 255.297 143.739C255.208 143.672 255.161 143.521 255.161 143.292C255.161 143.156 255.172 142.932 255.198 142.62C255.219 142.307 255.229 141.896 255.229 141.38L255.318 133.687L255.453 121.401C255.453 120.088 255.547 117.266 255.729 112.932C255.927 108.083 255.995 105.422 255.937 104.953L255.87 103.745C255.87 103.229 255.937 102.844 256.073 102.588C256.224 102.328 256.489 102.193 256.87 102.193L259.833 102.266C260.26 102.266 260.469 102.521 260.469 103.042C260.469 103.281 260.443 103.521 260.385 103.766C260.338 103.995 260.318 104.224 260.318 104.453C260.224 105.443 260.13 107.609 260.042 110.953C260.042 112.031 259.948 114.786 259.765 119.208C259.719 120.667 259.667 122.094 259.609 123.484C259.562 124.875 259.542 126.088 259.542 127.12C259.542 129.385 259.573 132.25 259.646 135.708C259.724 139.167 259.812 141.224 259.901 141.88C259.948 142.062 259.969 142.323 259.969 142.656C259.969 142.989 259.937 143.213 259.87 143.328C259.797 143.443 259.62 143.521 259.333 143.568C258.953 143.76 258.349 143.859 257.521 143.859C256.708 143.859 256.208 143.859 256.021 143.859ZM258.349 99.5936C257.364 99.5936 256.453 99.2186 255.625 98.4686C254.797 97.7134 254.385 96.7707 254.385 95.6457C254.385 94.6561 254.75 93.7707 255.474 92.9895C256.208 92.2082 257.068 91.8176 258.057 91.8176C259.239 91.8176 260.302 92.1249 261.245 92.7499C262.187 93.3541 262.661 94.203 262.661 95.2811C262.661 96.6041 262.187 97.6561 261.245 98.4374C260.302 99.2082 259.338 99.5936 258.349 99.5936ZM283.693 144.844C277.474 144.844 273.333 142.458 271.265 137.687C269.198 132.906 268.161 127.781 268.161 122.312C268.161 117.047 268.958 112.833 270.557 109.661C272.156 106.474 274.099 104.25 276.385 102.989C278.672 101.713 280.963 101.073 283.26 101.073C287.594 101.073 290.864 102.219 293.073 104.505C295.291 106.781 296.703 109.484 297.312 112.625C297.932 115.75 298.245 119.266 298.245 123.172C298.245 126.323 297.708 129.583 296.64 132.948C295.583 136.318 293.958 139.141 291.76 141.432C289.578 143.703 286.89 144.844 283.693 144.844ZM283.193 131.141C284.745 131.141 285.885 130.417 286.609 128.969C287.344 127.505 287.708 125.734 287.708 123.656C287.708 120.979 287.37 119.088 286.693 117.984C286.015 116.87 284.995 116.312 283.625 116.312C280.708 116.312 279.245 118.953 279.245 124.224C279.245 126.203 279.505 127.849 280.021 129.172C280.541 130.484 281.599 131.141 283.193 131.141ZM307.422 143.292C307.135 143.292 306.932 143.224 306.818 143.083C306.703 142.937 306.646 142.698 306.646 142.38L306.557 138.411C306.328 129.239 306.239 123.948 306.281 122.536V102.057C306.281 101.401 306.588 101.073 307.198 101.073H308.474L310.026 101.141C310.406 101.141 310.594 101.542 310.594 102.333L310.526 104.885L312.646 103.812C314.474 102.932 316.104 102.266 317.541 101.818C318.979 101.364 320.802 101.141 323.021 101.141C325.182 101.141 326.984 101.484 328.416 102.161C329.854 102.838 331.187 104.026 332.416 105.729C333.729 107.328 334.385 110.807 334.385 116.177L334.453 128.469L334.385 132.708C334.291 135.719 334.245 137.932 334.245 139.344C334.245 140.562 334.265 141.292 334.312 141.531C334.406 142.005 334.453 142.265 334.453 142.307C334.453 142.583 334.396 142.786 334.281 142.911C334.166 143.026 333.963 143.109 333.677 143.156C333.307 143.245 332.708 143.292 331.885 143.292C331.057 143.292 330.552 143.292 330.364 143.292C330.031 143.292 329.823 143.198 329.729 143.015C329.635 142.823 329.588 142.37 329.588 141.672L329.864 129.948L330.005 123.38L330.073 118.432C330.073 114.099 329.771 111.281 329.161 109.969C328.552 108.739 328 107.833 327.505 107.245C327.01 106.661 326.349 106.239 325.521 105.989C324.708 105.724 323.515 105.588 321.953 105.588C320.078 105.588 318.114 105.995 316.057 106.797C314.01 107.588 312.333 108.479 311.026 109.469C311.026 113.193 311.047 116.437 311.094 119.208V128.969C311.187 131.312 311.255 133.802 311.302 136.448C311.344 139.078 311.37 140.979 311.37 142.156C311.37 142.531 311.26 142.823 311.041 143.015C310.833 143.198 310.427 143.292 309.818 143.292H307.422Z" stroke="black" stroke-width="12.2688"/>
<path d="M50.3018 20.1034C55.2445 20.1034 58.8748 22.0825 61.1977 26.0409C63.531 29.9888 64.6977 34.994 64.6977 41.0617C64.6977 43.5096 64.3643 46.369 63.6977 49.645C63.0414 52.9106 61.656 55.9315 59.531 58.7075C57.4164 61.4888 54.3435 62.8742 50.3018 62.8742C46.9112 62.8742 44.0154 62.0565 41.6143 60.4159V61.3325C41.6143 61.6554 41.5779 61.8898 41.5102 62.0409C41.4373 62.1763 41.2654 62.2492 40.9893 62.2492C40.9893 62.1919 40.7914 62.1502 40.406 62.1242C40.031 62.1086 39.5623 62.1034 39.0102 62.1034C38.2029 62.1034 37.4998 62.1242 36.906 62.1659C36.3227 62.2179 35.9373 62.2492 35.7602 62.2492H35.4685C35.2289 62.2492 35.0414 62.1919 34.906 62.0825C34.7654 61.9575 34.6977 61.7284 34.6977 61.395L34.8435 58.7909L34.9893 55.8117L35.1143 37.4575C35.1664 36.8481 35.1977 36.0304 35.1977 34.9992V31.1867C35.1977 29.494 35.0779 26.3638 34.8435 21.7909L34.5518 13.6034C34.5518 12.6606 34.5623 11.9888 34.5935 11.5825C34.6195 11.1815 34.6352 10.9106 34.6352 10.77C34.6352 10.494 34.6873 10.2856 34.8018 10.145C34.9268 10.0096 35.1768 9.93669 35.5518 9.93669L39.8435 9.85335C40.0362 9.85335 40.2393 9.83252 40.4477 9.79085C40.6664 9.73877 40.8904 9.70752 41.1143 9.70752C41.4998 9.70752 41.6977 9.87419 41.6977 10.2075L41.7602 14.7909L41.8227 22.2909C44.3227 20.8325 47.1456 20.1034 50.3018 20.1034ZM50.0102 55.6867C52.9789 55.6867 55.3643 54.4367 57.156 51.9367C58.9477 49.4367 59.8435 45.8117 59.8435 41.0617C59.8435 36.8273 58.932 33.8065 57.1143 31.9992C55.307 30.1815 53.1768 29.27 50.7185 29.27C49.0779 29.27 47.4477 29.6242 45.8227 30.3325C44.1977 31.0409 42.8643 32.0304 41.8227 33.2909V33.5825C41.8227 35.6138 41.8018 37.0929 41.7602 38.02C41.7185 38.869 41.6977 39.9054 41.6977 41.1242V50.4575C42.5414 52.0565 43.6612 53.3273 45.0518 54.27C46.4373 55.2179 48.0935 55.6867 50.0102 55.6867Z" fill="#D8A0C2"/>
<path d="M82.0093 62.3118C81.952 62.3118 81.5822 62.2597 80.9051 62.1659C80.2228 62.0826 79.3218 62.0409 78.1968 62.0409L72.7593 62.1034C72.0509 62.1034 71.6968 61.8222 71.6968 61.2493C71.6968 61.0722 71.702 60.4368 71.7176 59.3534C71.7437 58.2701 71.7593 56.4107 71.7593 53.7701C71.7593 51.093 71.8426 48.5097 72.0093 46.0201C72.1759 43.5201 72.2593 42.1243 72.2593 41.8326L72.6759 29.0618L72.7593 21.7909C72.7593 21.2805 72.8739 20.9941 73.1134 20.9368C73.3478 20.9368 73.8634 20.968 74.6551 21.0201C75.4572 21.0618 76.4728 21.0826 77.6968 21.0826C78.6395 21.0826 79.5718 21.0618 80.4884 21.0201C81.4051 20.968 81.9572 20.9368 82.1551 20.9368C82.2905 20.9368 82.4155 21.0201 82.5301 21.1868C82.6551 21.3534 82.7176 21.4889 82.7176 21.5826L82.8426 23.5618C84.452 22.5201 86.327 21.6399 88.4676 20.9159C90.603 20.1816 92.2384 19.8118 93.3634 19.8118C93.6551 19.8118 93.8426 19.8326 93.9259 19.8743C94.0197 19.9316 94.1239 20.1399 94.2384 20.4993C94.3634 20.8482 94.4728 21.1399 94.5718 21.3743C95.0405 22.5409 95.3478 23.9524 95.4884 25.6034C95.5301 26.3534 95.6447 27.2232 95.8426 28.2076C95.9364 28.6399 95.9884 29.1607 95.9884 29.7701C95.9884 30.1451 95.9572 30.3534 95.9051 30.3951C95.5301 30.968 94.9676 31.3639 94.2176 31.5826C93.4676 31.7909 92.3634 31.9889 90.9051 32.1659C89.0718 32.3639 87.4937 32.6451 86.1759 33.0201L83.0718 33.7284L83.1343 36.5409C83.1343 38.0982 83.1551 38.8951 83.1968 38.9368L83.2801 44.9368C83.3739 48.0514 83.4259 52.2857 83.4259 57.6451C83.4259 59.7284 83.327 61.1191 83.1343 61.8118C83.1343 62.1451 82.7593 62.3118 82.0093 62.3118Z" fill="#D8A0C2"/>
<path d="M116.248 63.6659C109.19 63.6659 104.482 61.2805 102.123 56.4993C99.7737 51.7232 98.6018 46.5982 98.6018 41.1243C98.6018 35.8639 99.3987 31.6399 100.998 28.4576C102.591 25.2805 104.529 23.0566 106.81 21.7909C109.102 20.5149 111.399 19.8743 113.706 19.8743C118.039 19.8743 121.295 21.1243 123.477 23.6243C125.67 26.1243 127.081 29.0357 127.706 32.3534C128.341 35.6607 128.664 39.2441 128.664 43.1034C128.664 43.4368 128.435 43.6555 127.977 43.7493C126.42 43.7493 122.836 44.0097 117.227 44.5201C116.336 44.6191 115.253 44.7284 113.977 44.8534C112.711 44.968 111.3 45.0722 109.748 45.1659C110.175 49.7232 112.649 51.9993 117.164 51.9993C118.664 51.9993 119.821 51.8639 120.644 51.5826C121.477 51.3066 122.81 50.718 124.644 49.8118C124.977 49.8118 125.269 50.0097 125.519 50.3951C125.779 50.7701 126.149 51.5409 126.623 52.7076C126.758 52.9472 126.935 53.3951 127.144 54.0618C127.362 54.718 127.565 55.2076 127.748 55.5409C128.649 57.7909 129.071 58.968 129.019 59.0618C128.935 59.2597 128.675 59.5201 128.248 59.8534C127.258 60.843 125.67 61.7232 123.477 62.4993C121.295 63.2753 118.883 63.6659 116.248 63.6659ZM117.935 40.3534C117.56 34.9941 116.269 32.3118 114.06 32.3118C112.737 32.3118 111.727 33.0774 111.019 34.6034C110.31 36.1347 109.883 38.2857 109.748 41.0618L117.935 40.3534Z" fill="#D8A0C2"/>
<path d="M144.342 62.8742C140.909 62.8742 138.159 62.1919 136.092 60.8326C134.019 59.4732 132.987 57.0513 132.987 53.5617C133.222 51.3013 134.888 49.6242 137.987 48.5409C141.097 47.4576 144.581 46.9159 148.446 46.9159C149.664 46.9159 151.123 46.8274 152.821 46.6451C154.513 46.4524 156.071 46.3534 157.487 46.3534C157.289 41.2701 156.972 37.2857 156.529 34.3951C156.081 31.494 155.326 29.3117 154.258 27.8534C153.201 26.3951 151.706 25.6659 149.779 25.6659C148.373 25.6659 147.034 25.9992 145.758 26.6659C144.493 27.3221 142.914 28.3534 141.029 29.7701C139.472 30.8951 138.696 31.4576 138.696 31.4576C138.654 31.4576 138.498 31.5409 138.237 31.7076C137.987 31.8742 137.743 31.9367 137.508 31.8951C137.076 31.8013 136.862 31.5826 136.862 31.2492C136.68 30.9732 136.456 30.343 136.196 29.3534C135.93 28.3534 135.8 27.6451 135.8 27.2284C135.8 26.9367 136.081 26.6034 136.654 26.2284C139.055 24.4524 141.092 23.1242 142.758 22.2492C144.425 21.3742 145.852 20.8221 147.05 20.5826C148.258 20.3482 149.659 20.2284 151.258 20.2284C155.967 20.2284 159.133 21.7492 160.758 24.7909C162.383 27.8326 163.196 31.869 163.196 36.8951C163.196 38.218 163.144 40.0096 163.05 42.2701C163.05 43.6346 162.956 45.6346 162.779 48.2701L162.696 49.9576L162.779 54.1242C162.873 56.0149 162.925 57.4524 162.925 58.4367L162.842 60.5409C162.743 61.6242 162.321 62.1659 161.571 62.1659L161.008 62.1034H158.112C157.93 62.1034 157.758 62.0201 157.592 61.8534C157.425 61.6867 157.342 61.4888 157.342 61.2492V60.6867C154.519 61.494 152.263 62.0565 150.571 62.3742C148.873 62.7076 146.8 62.8742 144.342 62.8742ZM144.425 58.8534C149.451 58.8534 153.758 58.0096 157.342 56.3117L157.55 49.7492C155.342 49.5565 153.435 49.4576 151.842 49.4576L147.675 49.5409C145.409 49.5409 143.383 49.9784 141.592 50.8534C139.8 51.718 138.831 52.9263 138.696 54.4784C138.696 56.1763 139.092 57.3274 139.883 57.9367C140.685 58.5513 142.201 58.8534 144.425 58.8534Z" fill="#D8A0C2"/>
<path d="M174.22 62.1659C173.788 62.1659 173.554 62.145 173.512 62.1034C173.22 62.1034 173.074 61.9888 173.074 61.7492C173.074 61.6138 173.095 61.4575 173.137 61.2909C173.189 61.1242 173.246 60.9731 173.304 60.8325C173.345 60.4992 173.293 59.8898 173.158 58.9992C173.017 57.7231 172.949 57.0409 172.949 56.9575L172.866 51.8742C172.866 43.8221 172.96 39.3221 173.158 38.3742C173.199 37.6242 173.22 35.6554 173.22 32.4575L173.158 25.395C173.158 21.02 173.127 18.7388 173.074 18.5409C173.033 18.2075 173.012 17.3846 173.012 16.0617C172.97 14.895 172.97 13.7179 173.012 12.52C173.054 11.3117 173.121 10.5409 173.22 10.2075C173.22 9.83252 173.434 9.64502 173.866 9.64502C174.043 9.64502 174.241 9.68148 174.449 9.74919C174.668 9.8221 174.871 9.85335 175.054 9.85335C175.522 9.85335 176.22 9.86898 177.137 9.89502C178.054 9.92627 178.814 9.91064 179.429 9.85335H179.783C180.168 9.85335 180.397 9.93669 180.47 10.1034C180.538 10.27 180.574 10.4575 180.574 10.6659C180.574 10.8742 180.574 11.0096 180.574 11.0617C180.616 11.4784 180.621 11.9731 180.595 12.5409C180.58 13.1138 180.595 13.7909 180.637 14.5825L180.699 16.9784V22.9784C180.699 28.2596 180.658 31.27 180.574 32.02L180.491 34.145C180.491 34.52 180.512 34.8638 180.554 35.1659C180.606 35.4731 180.637 35.7909 180.637 36.1242L180.699 39.52L181.699 38.52L183.387 36.7492C184.33 35.8221 185.293 34.7648 186.283 33.5825C187.366 32.3638 188.21 31.4471 188.824 30.8325C189.252 30.1659 191.137 28.1659 194.47 24.8325C194.564 24.7388 195.189 24.0929 196.345 22.895C197.496 21.6867 198.356 21.0617 198.929 21.02H201.324C201.601 21.0617 201.741 21.2023 201.741 21.4367C201.741 21.619 201.647 21.8065 201.47 21.9992C201.371 22.0981 201.085 22.4315 200.616 22.9992C200.142 23.5565 199.668 24.02 199.199 24.395C198.309 25.3013 197.002 26.6659 195.283 28.4992C193.574 30.3325 192.601 31.4679 192.366 31.895L188.679 35.9159L185.512 39.2284L186.574 40.4367L187.637 41.6242C188.939 43.1815 189.996 44.3638 190.804 45.1659C191.179 45.4888 192.637 47.1346 195.179 50.1034C197.205 52.5096 198.387 53.8481 198.72 54.1242C199.272 54.5565 200.824 56.27 203.366 59.27L204.783 60.895C204.877 61.1867 204.929 61.3534 204.929 61.395C204.929 61.6763 204.595 61.8117 203.929 61.8117L196.241 62.0409C195.767 62.0409 195.377 61.9731 195.074 61.8325C194.767 61.6815 194.408 61.395 193.991 60.9784C193.835 60.8429 192.47 59.1971 189.887 56.0409L186.22 51.5825C185.371 50.7388 184.309 49.5617 183.033 48.0617L180.783 45.645C180.824 45.9367 180.845 46.7179 180.845 47.9784C180.845 49.2023 180.824 49.9575 180.783 50.2492V58.0825C180.783 59.1659 180.851 60.1346 180.991 60.9784C181.033 61.0773 181.054 61.2179 181.054 61.395C181.054 61.6346 180.981 61.7856 180.845 61.8534C180.705 61.9263 180.517 61.9575 180.283 61.9575H177.887L176.47 62.0409C175.439 62.1242 174.689 62.1659 174.22 62.1659Z" fill="#D8A0C2"/>
<path d="M233.175 62.3951C231.284 62.3951 229.868 62.1086 228.925 61.5409C227.993 60.9732 227.383 60.1816 227.092 59.1659C226.81 58.1555 226.675 56.7805 226.675 55.0409L226.737 50.6659L227.092 42.3326L227.3 36.1243V25.8118C225.05 25.8118 223.758 25.4368 223.425 24.6868C223.284 24.3118 223.217 23.9107 223.217 23.4784C223.217 23.0097 223.248 22.5618 223.321 22.1451C223.388 21.718 223.425 21.3118 223.425 20.9368C224.269 20.9941 225.56 21.0201 227.3 21.0201L227.383 20.7284L227.446 18.0409V15.0201C227.404 13.8847 227.487 13.1191 227.696 12.7284C227.904 12.3274 228.222 12.1243 228.654 12.1243C228.888 12.1243 229.076 12.1451 229.217 12.1868H229.362C229.446 12.1868 229.602 12.1816 229.842 12.1659C230.076 12.1399 230.29 12.1659 230.487 12.2493C231.43 12.4055 231.904 12.8066 231.904 13.4576C231.904 13.5982 231.852 14.1399 231.758 15.0826C231.519 16.7389 231.352 18.718 231.258 21.0201H238.05C238.425 21.0201 238.727 21.343 238.967 21.9784C239.201 22.6034 239.321 23.2701 239.321 23.9784C239.321 24.9264 239.102 25.468 238.675 25.6034C237.784 25.8847 236.701 26.0201 235.425 26.0201C234.3 26.0201 232.888 25.9316 231.196 25.7493V42.4784L231.112 45.2909C230.972 47.1399 230.904 49.0514 230.904 51.0201V52.4368C230.904 53.9368 231.227 55.0566 231.883 55.7909C232.55 56.5149 233.425 56.8743 234.508 56.8743C235.55 56.8743 236.446 56.843 237.196 56.7701C237.946 56.7024 238.487 56.6659 238.821 56.6659C239.331 56.6659 239.592 57.5826 239.592 59.4159L239.883 60.5409C240.019 60.8743 239.993 61.0722 239.8 61.1243C238.3 61.6816 237.18 62.0305 236.446 62.1659C235.722 62.317 234.633 62.3951 233.175 62.3951Z" fill="#D8A0C2"/>
<path d="M252.296 62.1033C250.697 62.0616 249.004 62.0408 247.213 62.0408C245.848 62.0408 245.171 61.3533 245.171 59.9783L245.234 45.9366V43.0408C245.192 42.2387 245.171 41.2491 245.171 40.0825C245.171 38.8637 245.239 36.9523 245.379 34.3533C245.515 32.6189 245.635 29.1189 245.734 23.8533C245.827 18.5773 245.879 14.9262 245.879 12.895C245.879 11.6762 245.994 10.7804 246.234 10.2075C246.468 9.63977 246.864 9.38456 247.421 9.43664C248.046 9.47831 248.869 9.49914 249.9 9.49914C251.077 9.49914 251.905 9.45227 252.379 9.35331C252.989 9.21789 253.411 9.46789 253.65 10.1033C253.885 10.7439 254.004 11.4575 254.004 12.2491L253.921 20.7908L255.338 20.1658C256.614 19.5564 257.848 19.0825 259.046 18.7491C260.239 18.4158 261.9 18.2491 264.025 18.2491C266.984 18.2491 269.286 18.8689 270.942 20.1033C272.593 21.3273 273.801 23.5408 274.567 26.7491C275.343 29.9471 275.734 34.5981 275.734 40.7075C275.734 48.6137 275.713 53.1033 275.671 54.1866L275.734 60.5408C275.734 61.0148 275.661 61.395 275.525 61.6866C275.385 61.9679 275.197 62.1033 274.963 62.1033H268.4C267.968 62.1033 267.702 61.9523 267.609 61.645C267.525 61.3429 267.484 60.8533 267.484 60.1866C267.484 59.8689 267.504 59.3846 267.546 58.7283C267.598 58.0616 267.629 57.2596 267.629 56.3116C267.629 55.7023 267.577 55.0721 267.484 54.4158C267.442 54.1814 267.463 52.2491 267.546 48.6241C267.681 42.1241 267.754 38.52 267.754 37.8116C267.754 34.6189 267.598 32.1398 267.296 30.3741C266.989 28.6137 266.379 27.3064 265.463 26.4575C264.546 25.6137 263.171 25.1866 261.338 25.1866C258.379 25.1866 255.905 26.0773 253.921 27.8533C253.681 33.5096 253.567 39.0148 253.567 44.3741C253.567 46.9158 253.635 50.8741 253.775 56.2491L253.859 59.7075C253.859 60.4575 253.76 61.0512 253.567 61.4783C253.385 61.895 252.963 62.1033 252.296 62.1033Z" fill="#D8A0C2"/>
<path d="M299.113 63.6659C292.056 63.6659 287.348 61.2805 284.988 56.4993C282.64 51.7232 281.468 46.5982 281.468 41.1243C281.468 35.8639 282.265 31.6399 283.863 28.4576C285.457 25.2805 287.395 23.0566 289.676 21.7909C291.968 20.5149 294.265 19.8743 296.572 19.8743C300.905 19.8743 304.16 21.1243 306.343 23.6243C308.535 26.1243 309.947 29.0357 310.572 32.3534C311.207 35.6607 311.53 39.2441 311.53 43.1034C311.53 43.4368 311.301 43.6555 310.843 43.7493C309.285 43.7493 305.702 44.0097 300.093 44.5201C299.202 44.6191 298.119 44.7284 296.843 44.8534C295.577 44.968 294.166 45.0722 292.613 45.1659C293.041 49.7232 295.515 51.9993 300.03 51.9993C301.53 51.9993 302.686 51.8639 303.509 51.5826C304.343 51.3066 305.676 50.718 307.509 49.8118C307.843 49.8118 308.134 50.0097 308.384 50.3951C308.645 50.7701 309.015 51.5409 309.488 52.7076C309.624 52.9472 309.801 53.3951 310.009 54.0618C310.228 54.718 310.431 55.2076 310.613 55.5409C311.515 57.7909 311.936 58.968 311.884 59.0618C311.801 59.2597 311.541 59.5201 311.113 59.8534C310.124 60.843 308.535 61.7232 306.343 62.4993C304.16 63.2753 301.749 63.6659 299.113 63.6659ZM300.801 40.3534C300.426 34.9941 299.134 32.3118 296.926 32.3118C295.603 32.3118 294.593 33.0774 293.884 34.6034C293.176 36.1347 292.749 38.2857 292.613 41.0618L300.801 40.3534Z" fill="#D8A0C2"/>
<path d="M132.244 144.063C129.838 144.063 127.687 143.521 125.786 142.438C123.88 141.354 122.27 139.76 120.953 137.646C118.505 133.688 117.286 128.49 117.286 122.042C117.286 119.073 117.63 116.516 118.328 114.375C119.036 112.24 120.145 110.203 121.661 108.271C123.062 106.479 124.588 105.141 126.244 104.25C128.036 103.307 129.828 102.833 131.619 102.833C133.921 102.833 135.755 103.021 137.119 103.396C138.479 103.771 139.359 104.125 139.765 104.458C140.166 104.792 140.723 105.313 141.432 106.021L141.557 94.3542C141.557 93.1355 141.671 92.2501 141.911 91.7084C142.145 91.1667 142.546 90.8959 143.119 90.8959L146.223 90.9792C147.026 90.9792 147.64 90.9323 148.057 90.8334C148.666 90.7396 149.088 91.0105 149.328 91.6459C149.562 92.2865 149.682 92.9792 149.682 93.7292L149.536 142.021C149.536 142.635 149.401 143.057 149.14 143.292C148.89 143.526 148.505 143.646 147.994 143.646C146.338 143.547 144.645 143.5 142.911 143.5C142.161 143.5 141.625 143.406 141.307 143.229C141 143.037 140.848 142.583 140.848 141.875V140.458C139.442 141.542 138.036 142.417 136.619 143.083C135.203 143.734 133.744 144.063 132.244 144.063ZM132.036 139.188C133.77 139.188 135.317 138.865 136.682 138.208C138.057 137.557 139.104 136.688 139.828 135.604C140.562 134.521 140.932 133.412 140.932 132.271C140.932 131.146 141.02 129.5 141.203 127.333L141.348 124.229C141.348 123.245 141.296 121.953 141.203 120.354C141.119 118.469 141.078 116.604 141.078 114.771C141.078 113.552 140.625 112.469 139.723 111.521C138.833 110.578 137.729 109.849 136.411 109.333C135.088 108.823 133.869 108.563 132.744 108.563C131.286 108.563 129.895 108.958 128.578 109.75C127.255 110.599 126.171 111.682 125.328 113C124.338 114.557 123.609 116.063 123.14 117.521C122.666 118.979 122.432 120.677 122.432 122.604C122.432 127.412 123.182 131.271 124.682 134.188C126.333 137.521 128.786 139.188 132.036 139.188Z" fill="#D8A0C2"/>
<path d="M159.842 143.854C159.467 143.854 159.227 143.818 159.134 143.75C159.05 143.677 159.009 143.526 159.009 143.292C159.009 143.156 159.014 142.932 159.029 142.625C159.055 142.323 159.071 141.906 159.071 141.375L159.154 133.688L159.279 121.396C159.279 120.094 159.373 117.271 159.571 112.938C159.748 108.094 159.821 105.432 159.779 104.958L159.717 103.75C159.717 103.24 159.785 102.854 159.925 102.604C160.061 102.344 160.321 102.208 160.696 102.208L163.654 102.271C164.082 102.271 164.3 102.531 164.3 103.042C164.3 103.281 164.269 103.516 164.217 103.75C164.175 103.99 164.154 104.224 164.154 104.458C164.055 105.448 163.967 107.615 163.884 110.958C163.884 112.042 163.785 114.792 163.592 119.208C163.55 120.667 163.498 122.094 163.446 123.479C163.404 124.87 163.384 126.083 163.384 127.125C163.384 129.391 163.415 132.25 163.488 135.708C163.555 139.167 163.639 141.224 163.738 141.875C163.779 142.073 163.8 142.328 163.8 142.646C163.8 142.979 163.764 143.203 163.696 143.313C163.623 143.438 163.451 143.526 163.175 143.583C162.8 143.76 162.196 143.854 161.363 143.854C160.54 143.854 160.035 143.854 159.842 143.854ZM162.175 99.5833C161.186 99.5833 160.285 99.2083 159.467 98.4583C158.644 97.7083 158.238 96.7656 158.238 95.625C158.238 94.6406 158.597 93.7604 159.321 92.9792C160.055 92.2031 160.915 91.8125 161.904 91.8125C163.071 91.8125 164.123 92.1198 165.071 92.7292C166.014 93.3437 166.488 94.1875 166.488 95.2708C166.488 96.5937 166.014 97.6406 165.071 98.4167C164.123 99.1979 163.16 99.5833 162.175 99.5833Z" fill="#D8A0C2"/>
<path d="M181.817 143.646C181.15 143.646 180.718 143.479 180.525 143.146C180.343 142.813 180.182 142.25 180.046 141.458C179.572 139.667 178.88 137.125 177.963 133.833C177.046 130.542 176.234 127.625 175.525 125.083C175.15 123.766 174.338 120.583 173.088 115.542C171.838 110.5 170.973 107.094 170.505 105.313L170.025 103.188C169.926 102.911 169.88 102.724 169.88 102.625C169.88 102.292 170.114 102.125 170.588 102.125C170.822 102.125 171.114 102.161 171.463 102.229C171.822 102.302 172.192 102.333 172.567 102.333L175.588 102.271L179.546 102.125C180.255 102.031 180.723 102.125 180.963 102.417C181.197 102.698 181.406 103.188 181.588 103.896C181.88 104.604 182.281 106.745 182.796 110.313L183.213 113C183.505 115.031 184.072 117.74 184.921 121.125L186.255 126.917L187.025 123.458C187.317 122.474 187.671 120.729 188.088 118.229C188.14 117.62 188.635 115.5 189.567 111.875C190.702 107.682 191.244 105.115 191.192 104.167C191.109 103.182 191.202 102.573 191.484 102.333C191.76 102.099 192.109 101.995 192.525 102.021C192.952 102.052 193.239 102.063 193.38 102.063C197.338 102.063 199.838 102.115 200.88 102.208C201.63 102.292 202.005 102.521 202.005 102.896C202.005 103.052 201.952 103.365 201.859 103.833C201.525 104.682 201.01 106.583 200.317 109.542L199.734 112.146C198.51 117.938 197.473 122.177 196.63 124.854C196.072 127.219 195.369 130.917 194.525 135.958C194.369 136.75 194.156 137.927 193.88 139.479C193.598 141.037 193.411 141.953 193.317 142.229C193.176 142.896 192.848 143.229 192.338 143.229L191.275 143.146C190.426 143.146 189.088 143.219 187.255 143.354C184.239 143.547 182.426 143.646 181.817 143.646Z" fill="#D8A0C2"/>
<path d="M207.359 143.854C206.984 143.854 206.744 143.818 206.65 143.75C206.567 143.677 206.525 143.526 206.525 143.292C206.525 143.156 206.531 142.932 206.546 142.625C206.572 142.323 206.588 141.906 206.588 141.375L206.671 133.688L206.796 121.396C206.796 120.094 206.89 117.271 207.088 112.938C207.265 108.094 207.338 105.432 207.296 104.958L207.234 103.75C207.234 103.24 207.302 102.854 207.442 102.604C207.578 102.344 207.838 102.208 208.213 102.208L211.171 102.271C211.598 102.271 211.817 102.531 211.817 103.042C211.817 103.281 211.786 103.516 211.734 103.75C211.692 103.99 211.671 104.224 211.671 104.458C211.572 105.448 211.484 107.615 211.4 110.958C211.4 112.042 211.302 114.792 211.109 119.208C211.067 120.667 211.015 122.094 210.963 123.479C210.921 124.87 210.9 126.083 210.9 127.125C210.9 129.391 210.932 132.25 211.005 135.708C211.072 139.167 211.156 141.224 211.255 141.875C211.296 142.073 211.317 142.328 211.317 142.646C211.317 142.979 211.281 143.203 211.213 143.313C211.14 143.438 210.968 143.526 210.692 143.583C210.317 143.76 209.713 143.854 208.88 143.854C208.057 143.854 207.552 143.854 207.359 143.854ZM209.692 99.5833C208.703 99.5833 207.802 99.2083 206.984 98.4583C206.161 97.7083 205.755 96.7656 205.755 95.625C205.755 94.6406 206.114 93.7604 206.838 92.9792C207.572 92.2031 208.432 91.8125 209.421 91.8125C210.588 91.8125 211.64 92.1198 212.588 92.7292C213.531 93.3437 214.005 94.1875 214.005 95.2708C214.005 96.5937 213.531 97.6406 212.588 98.4167C211.64 99.1979 210.677 99.5833 209.692 99.5833Z" fill="#D8A0C2"/>
<path d="M232.709 144.5C229.844 144.5 227.469 144.146 225.584 143.438C223.693 142.729 222.547 142.203 222.146 141.854C221.756 141.495 220.881 140.635 219.521 139.271C219.23 138.979 219.152 138.792 219.292 138.708C219.386 138.474 219.553 138.208 219.792 137.917L220.709 136.792C220.943 136.458 221.365 135.917 221.98 135.167C222.115 135.031 222.282 134.958 222.48 134.958C222.657 134.958 222.917 135.073 223.251 135.292C223.584 135.5 223.865 135.724 224.105 135.958C224.146 136 224.407 136.224 224.896 136.625C225.396 137.031 226.115 137.385 227.063 137.688C228.006 137.995 229.042 138.146 230.167 138.146C231.678 138.146 232.98 137.854 234.063 137.271C235.146 136.677 235.688 135.432 235.688 133.542C235.688 132.042 235.365 130.781 234.73 129.75C234.089 128.708 233.297 127.849 232.355 127.167C231.422 126.474 230.131 125.682 228.48 124.792C226.646 123.766 225.157 122.844 224.021 122.021C222.896 121.188 221.943 120.073 221.167 118.667C220.386 117.25 220.001 115.5 220.001 113.417C220.001 110.974 220.657 108.813 221.98 106.938C223.297 105.052 225.094 103.599 227.376 102.583C229.667 101.573 232.198 101.062 234.98 101.062C239.396 101.062 242.74 101.995 245.021 103.854C247.313 105.719 248.506 106.667 248.605 106.708C248.782 106.865 248.876 107.031 248.876 107.208C248.876 107.349 248.823 107.495 248.73 107.646C248.646 107.786 248.573 107.927 248.521 108.063C248.339 108.344 248.021 108.833 247.563 109.542C247.115 110.25 246.756 110.745 246.48 111.021C246.381 111.161 246.261 111.344 246.126 111.563C245.985 111.771 245.855 111.906 245.73 111.958C245.615 112 245.469 112.021 245.292 112.021C245.094 111.927 244.428 111.417 243.292 110.5C242.167 109.583 240.907 108.724 239.521 107.917C238.131 107.115 236.943 106.708 235.959 106.708C234.928 106.708 234.198 107.057 233.771 107.75C233.355 108.432 233.146 109.573 233.146 111.167C233.146 112.349 233.422 113.344 233.98 114.146C234.547 114.938 235.089 115.5 235.605 115.833C236.131 116.156 237.126 116.698 238.584 117.458C240.318 118.156 241.834 118.885 243.126 119.646C244.417 120.396 245.657 121.719 246.855 123.604C248.063 125.479 248.667 127.974 248.667 131.083C248.667 140.031 243.344 144.5 232.709 144.5Z" fill="#D8A0C2"/>
<path d="M256.005 143.854C255.63 143.854 255.391 143.818 255.297 143.75C255.214 143.677 255.172 143.526 255.172 143.292C255.172 143.156 255.177 142.932 255.193 142.625C255.219 142.323 255.235 141.906 255.235 141.375L255.318 133.688L255.443 121.396C255.443 120.094 255.537 117.271 255.735 112.938C255.912 108.094 255.985 105.432 255.943 104.958L255.88 103.75C255.88 103.24 255.948 102.854 256.089 102.604C256.224 102.344 256.485 102.208 256.86 102.208L259.818 102.271C260.245 102.271 260.464 102.531 260.464 103.042C260.464 103.281 260.432 103.516 260.38 103.75C260.339 103.99 260.318 104.224 260.318 104.458C260.219 105.448 260.13 107.615 260.047 110.958C260.047 112.042 259.948 114.792 259.755 119.208C259.714 120.667 259.662 122.094 259.61 123.479C259.568 124.87 259.547 126.083 259.547 127.125C259.547 129.391 259.578 132.25 259.651 135.708C259.719 139.167 259.802 141.224 259.901 141.875C259.943 142.073 259.964 142.328 259.964 142.646C259.964 142.979 259.927 143.203 259.86 143.313C259.787 143.438 259.615 143.526 259.339 143.583C258.964 143.76 258.36 143.854 257.526 143.854C256.703 143.854 256.198 143.854 256.005 143.854ZM258.339 99.5833C257.349 99.5833 256.448 99.2083 255.63 98.4583C254.807 97.7083 254.401 96.7656 254.401 95.625C254.401 94.6406 254.761 93.7604 255.485 92.9792C256.219 92.2031 257.078 91.8125 258.068 91.8125C259.235 91.8125 260.287 92.1198 261.235 92.7292C262.177 93.3437 262.651 94.1875 262.651 95.2708C262.651 96.5937 262.177 97.6406 261.235 98.4167C260.287 99.1979 259.323 99.5833 258.339 99.5833Z" fill="#D8A0C2"/>
<path d="M283.689 144.854C277.48 144.854 273.34 142.469 271.272 137.688C269.199 132.911 268.168 127.786 268.168 122.313C268.168 117.052 268.965 112.828 270.564 109.646C272.157 106.469 274.095 104.245 276.376 102.979C278.668 101.703 280.965 101.062 283.272 101.062C287.605 101.062 290.876 102.208 293.085 104.5C295.293 106.781 296.699 109.49 297.314 112.625C297.923 115.75 298.23 119.266 298.23 123.167C298.23 126.323 297.699 129.583 296.647 132.958C295.59 136.323 293.965 139.146 291.772 141.438C289.59 143.714 286.897 144.854 283.689 144.854ZM283.189 131.146C284.741 131.146 285.881 130.417 286.605 128.958C287.34 127.5 287.71 125.74 287.71 123.667C287.71 120.99 287.366 119.094 286.689 117.979C286.006 116.87 284.986 116.313 283.626 116.313C280.71 116.313 279.251 118.953 279.251 124.229C279.251 126.203 279.506 127.849 280.022 129.167C280.532 130.49 281.59 131.146 283.189 131.146Z" fill="#D8A0C2"/>
<path d="M307.415 143.292C307.133 143.292 306.936 143.224 306.811 143.083C306.696 142.948 306.644 142.708 306.644 142.375L306.561 138.417C306.321 129.24 306.232 123.948 306.29 122.542V102.063C306.29 101.396 306.592 101.062 307.206 101.062H308.477L310.019 101.146C310.404 101.146 310.602 101.542 310.602 102.333L310.519 104.875L312.644 103.833C314.477 102.932 316.107 102.26 317.54 101.813C318.982 101.37 320.811 101.146 323.019 101.146C325.186 101.146 326.982 101.49 328.415 102.167C329.857 102.849 331.191 104.036 332.415 105.729C333.732 107.328 334.394 110.813 334.394 116.188L334.456 128.458L334.394 132.708C334.295 135.724 334.248 137.932 334.248 139.333C334.248 140.557 334.269 141.286 334.311 141.521C334.404 141.995 334.456 142.26 334.456 142.313C334.456 142.594 334.394 142.792 334.269 142.917C334.154 143.031 333.962 143.104 333.686 143.146C333.311 143.245 332.706 143.292 331.873 143.292C331.05 143.292 330.545 143.292 330.352 143.292C330.029 143.292 329.821 143.203 329.727 143.021C329.628 142.828 329.581 142.375 329.581 141.667L329.873 129.938L329.998 123.375L330.081 118.438C330.081 114.104 329.774 111.281 329.165 109.958C328.55 108.74 327.998 107.833 327.498 107.25C327.008 106.667 326.352 106.245 325.519 105.979C324.696 105.719 323.508 105.583 321.956 105.583C320.081 105.583 318.113 105.99 316.061 106.792C314.019 107.583 312.337 108.479 311.019 109.479C311.019 113.188 311.04 116.432 311.081 119.208V128.958C311.175 131.307 311.248 133.802 311.29 136.438C311.342 139.078 311.373 140.99 311.373 142.167C311.373 142.542 311.258 142.828 311.04 143.021C310.831 143.203 310.42 143.292 309.811 143.292H307.415Z" fill="#D8A0C2"/>
</svg>
